<?xml version="1.0" standalone="no"?>
<!DOCTYPE svg PUBLIC "-//W3C//DTD SVG 20010904//EN"
 "http://www.w3.org/TR/2001/REC-SVG-20010904/DTD/svg10.dtd">
<svg version="1.0" xmlns="http://www.w3.org/2000/svg"
 width="559.000000pt" height="434.000000pt" viewBox="0 0 559.000000 434.000000"
 preserveAspectRatio="xMidYMid meet">

<g transform="translate(0.000000,434.000000) scale(0.100000,-0.100000)"
fill="#000000" stroke="none">
<path d="M0 2170 l0 -2170 2795 0 2795 0 0 2170 0 2170 -2795 0 -2795 0 0
-2170z m1534 255 c104 -173 192 -315 196 -315 4 0 27 33 50 73 24 39 108 181
187 315 l144 242 99 0 100 0 0 -515 0 -515 -110 0 -110 0 -2 308 -3 307 -66
-110 c-36 -60 -105 -176 -154 -257 l-87 -148 -48 0 c-32 0 -52 5 -62 18 -9 9
-78 120 -154 246 l-139 229 -3 -297 -2 -296 -115 0 -115 0 0 515 0 515 103 0
102 -1 189 -314z m1291 218 c32 -54 119 -198 193 -321 l135 -224 81 139 c45
76 130 220 190 321 l108 182 99 0 99 0 0 -57 c1 -32 3 -264 6 -515 l6 -458
-116 0 -116 0 -2 307 -3 307 -150 -254 -151 -255 -55 -3 c-52 -3 -55 -2 -73
30 -11 18 -78 130 -150 248 l-131 215 -3 -297 -2 -298 -115 0 -115 0 0 515 0
515 103 0 104 0 58 -97z m1840 82 c136 -35 218 -128 217 -247 0 -83 -24 -139
-81 -191 l-48 -42 40 -19 c99 -47 156 -150 144 -262 -10 -98 -60 -167 -153
-210 -82 -39 -140 -44 -480 -44 l-324 0 0 515 0 515 313 0 c247 0 325 -3 372
-15z m-2235 -1264 c0 -6 -4 -13 -10 -16 -5 -3 -10 1 -10 9 0 9 5 16 10 16 6 0
10 -4 10 -9z m790 -46 c0 -30 4 -55 8 -55 5 0 21 14 37 30 16 17 35 30 44 30
10 0 6 -9 -13 -29 l-28 -30 19 -28 c31 -44 35 -53 24 -53 -6 0 -21 16 -34 35
-23 34 -25 34 -40 17 -10 -10 -17 -26 -17 -35 0 -9 -4 -17 -10 -17 -6 0 -10
38 -10 95 0 57 4 95 10 95 6 0 10 -25 10 -55z m-1353 5 c15 -22 31 -40 34 -40
4 0 19 18 34 40 44 64 55 54 55 -50 0 -53 -4 -90 -10 -90 -6 0 -10 32 -10 77
l0 77 -32 -42 c-18 -23 -35 -42 -38 -42 -3 0 -18 19 -35 41 l-30 41 -3 -76
c-4 -107 -22 -95 -22 14 0 105 11 115 57 50z m956 -1 l34 -42 29 42 c45 63 54
55 54 -49 0 -53 -4 -90 -10 -90 -6 0 -10 31 -10 73 l0 72 -33 -39 -34 -39 -29
36 c-16 21 -32 37 -36 37 -5 0 -8 -31 -8 -70 0 -40 -4 -70 -10 -70 -6 0 -10
37 -10 90 0 106 9 113 63 49z m1063 33 c17 -11 22 -35 13 -59 -5 -12 -4 -25 0
-27 19 -12 19 -48 0 -67 -14 -14 -33 -19 -74 -19 l-55 0 0 90 0 90 53 0 c28 0
57 -4 63 -8z m-1804 -89 c3 -52 5 -58 26 -61 37 -5 52 15 52 69 0 27 5 49 10
49 6 0 10 -30 10 -70 0 -40 -4 -70 -10 -70 -5 0 -10 5 -10 12 0 9 -3 9 -12 0
-17 -17 -54 -15 -72 4 -11 10 -16 34 -16 70 0 72 18 69 22 -3z m242 51 c17 -7
22 -34 6 -34 -5 0 -10 5 -10 10 0 6 -13 10 -30 10 -45 0 -37 -25 15 -44 65
-25 58 -76 -11 -76 -31 0 -63 24 -50 37 4 4 10 3 14 -3 12 -18 44 -25 58 -13
22 18 17 25 -31 43 -46 18 -57 40 -33 64 13 13 47 16 72 6z m106 -64 c0 -40
-4 -70 -10 -70 -6 0 -10 30 -10 70 0 40 4 70 10 70 6 0 10 -30 10 -70z m166
56 c10 -8 16 -18 11 -22 -4 -4 -13 -2 -19 4 -37 37 -102 -15 -80 -63 13 -27
58 -35 80 -13 6 6 15 8 19 4 12 -12 -27 -36 -57 -36 -34 0 -63 32 -63 70 0 58
62 90 109 56z m512 2 c9 -9 12 -9 12 0 0 7 5 12 10 12 6 0 10 -30 10 -70 0
-40 -4 -70 -10 -70 -5 0 -10 5 -10 12 0 9 -3 9 -12 0 -21 -21 -65 -14 -87 14
-27 35 -26 59 4 89 26 27 64 32 83 13z m359 -3 c11 -8 23 -26 25 -40 5 -24 4
-25 -53 -25 -33 0 -59 -4 -59 -8 0 -29 64 -44 88 -20 6 6 14 9 17 6 12 -11
-27 -38 -56 -38 -38 0 -69 32 -69 70 0 57 60 88 107 55z m103 -1 c0 -14 1 -14
16 0 15 16 34 21 34 10 0 -3 -11 -15 -25 -26 -20 -15 -25 -28 -25 -64 0 -24
-4 -44 -10 -44 -6 0 -10 30 -10 70 0 40 4 70 10 70 6 0 10 -7 10 -16z m508 0
c27 -19 30 -78 5 -106 -38 -42 -113 -10 -113 48 0 62 58 94 108 58z m107 -10
l17 -27 23 29 c31 38 43 24 14 -15 l-23 -31 23 -31 c29 -39 18 -53 -13 -15
l-22 29 -21 -27 c-12 -14 -26 -26 -32 -26 -7 0 0 16 14 35 l27 34 -21 30 c-23
32 -26 41 -12 41 5 0 16 -12 26 -26z"/>
<path d="M4228 2565 c-5 -5 -8 -62 -8 -127 l0 -118 155 0 c213 0 265 23 267
121 1 50 -24 87 -70 106 -39 16 -331 31 -344 18z"/>
<path d="M4222 2013 l3 -128 125 -2 c160 -3 265 10 299 35 14 10 32 36 40 57
13 32 13 43 0 79 -11 33 -23 46 -59 64 -41 20 -57 22 -227 22 l-184 0 3 -127z"/>
<path d="M3790 1410 c0 -28 2 -30 39 -30 42 0 65 18 55 44 -4 11 -19 16 -50
16 -42 0 -44 -1 -44 -30z"/>
<path d="M3790 1330 c0 -29 2 -30 44 -30 51 0 76 20 56 45 -8 9 -30 15 -56 15
-42 0 -44 -1 -44 -30z"/>
<path d="M3035 1380 c-15 -16 -17 -26 -9 -48 17 -50 94 -39 94 14 0 49 -52 70
-85 34z"/>
<path d="M3392 1388 c-21 -21 -13 -28 33 -28 25 0 45 4 45 8 0 15 -24 32 -45
32 -12 0 -26 -5 -33 -12z"/>
<path d="M4002 1388 c-7 -7 -12 -24 -12 -38 0 -31 17 -50 45 -50 28 0 45 19
45 50 0 31 -17 50 -45 50 -12 0 -26 -5 -33 -12z"/>
</g>
</svg>
